<mxfile host="app.diagrams.net" modified="2024-09-23T23:37:19.975Z" agent="Mozilla/5.0 (Windows NT 10.0; Win64; x64) AppleWebKit/537.36 (KHTML, like Gecko) Chrome/128.0.0.0 Safari/537.36" etag="YDm90_t7ZVettAdCPiwj" version="22.1.16" type="device" pages="2">
  <diagram name="Realização do pedido e pagamento" id="j2-TFL-PUkfyGAMVTwei">
    <mxGraphModel dx="2773" dy="1054" grid="1" gridSize="10" guides="1" tooltips="1" connect="1" arrows="1" fold="1" page="1" pageScale="1" pageWidth="827" pageHeight="1169" math="0" shadow="0">
      <root>
        <mxCell id="0" />
        <mxCell id="1" parent="0" />
        <mxCell id="vLToclpWKujD72cjkbzM-13" style="edgeStyle=orthogonalEdgeStyle;rounded=0;orthogonalLoop=1;jettySize=auto;html=1;entryX=0;entryY=0.5;entryDx=0;entryDy=0;" edge="1" parent="1" source="vLToclpWKujD72cjkbzM-1" target="vLToclpWKujD72cjkbzM-9">
          <mxGeometry relative="1" as="geometry" />
        </mxCell>
        <mxCell id="vLToclpWKujD72cjkbzM-1" value="Auto Atendimento (Front)" style="sketch=0;aspect=fixed;pointerEvents=1;shadow=0;dashed=0;html=1;strokeColor=none;labelPosition=center;verticalLabelPosition=bottom;verticalAlign=top;align=center;fillColor=#00188D;shape=mxgraph.azure.computer" vertex="1" parent="1">
          <mxGeometry x="120" y="300" width="50" height="45" as="geometry" />
        </mxCell>
        <mxCell id="vLToclpWKujD72cjkbzM-2" value="Cliente Consumidor" style="shape=umlActor;verticalLabelPosition=bottom;verticalAlign=top;html=1;outlineConnect=0;" vertex="1" parent="1">
          <mxGeometry x="10" y="292.5" width="30" height="60" as="geometry" />
        </mxCell>
        <mxCell id="vLToclpWKujD72cjkbzM-5" style="edgeStyle=orthogonalEdgeStyle;rounded=0;orthogonalLoop=1;jettySize=auto;html=1;entryX=0;entryY=0.5;entryDx=0;entryDy=0;entryPerimeter=0;" edge="1" parent="1" source="vLToclpWKujD72cjkbzM-2" target="vLToclpWKujD72cjkbzM-1">
          <mxGeometry relative="1" as="geometry" />
        </mxCell>
        <mxCell id="vLToclpWKujD72cjkbzM-20" style="edgeStyle=orthogonalEdgeStyle;rounded=0;orthogonalLoop=1;jettySize=auto;html=1;entryX=0;entryY=0.5;entryDx=0;entryDy=0;" edge="1" parent="1" source="vLToclpWKujD72cjkbzM-8" target="vLToclpWKujD72cjkbzM-19">
          <mxGeometry relative="1" as="geometry" />
        </mxCell>
        <mxCell id="vLToclpWKujD72cjkbzM-8" value="Solicita CPF" style="rounded=0;whiteSpace=wrap;html=1;" vertex="1" parent="1">
          <mxGeometry x="414" y="295" width="100" height="55" as="geometry" />
        </mxCell>
        <mxCell id="vLToclpWKujD72cjkbzM-14" style="edgeStyle=orthogonalEdgeStyle;rounded=0;orthogonalLoop=1;jettySize=auto;html=1;exitX=1;exitY=0.5;exitDx=0;exitDy=0;entryX=0;entryY=0.5;entryDx=0;entryDy=0;" edge="1" parent="1" source="vLToclpWKujD72cjkbzM-9" target="vLToclpWKujD72cjkbzM-8">
          <mxGeometry relative="1" as="geometry" />
        </mxCell>
        <mxCell id="vLToclpWKujD72cjkbzM-15" value="Sim" style="edgeLabel;html=1;align=center;verticalAlign=middle;resizable=0;points=[];" vertex="1" connectable="0" parent="vLToclpWKujD72cjkbzM-14">
          <mxGeometry x="-0.2286" y="-1" relative="1" as="geometry">
            <mxPoint as="offset" />
          </mxGeometry>
        </mxCell>
        <mxCell id="vLToclpWKujD72cjkbzM-17" style="edgeStyle=orthogonalEdgeStyle;rounded=0;orthogonalLoop=1;jettySize=auto;html=1;entryX=0.5;entryY=0;entryDx=0;entryDy=0;" edge="1" parent="1" source="vLToclpWKujD72cjkbzM-9" target="vLToclpWKujD72cjkbzM-16">
          <mxGeometry relative="1" as="geometry" />
        </mxCell>
        <mxCell id="vLToclpWKujD72cjkbzM-18" value="Não" style="edgeLabel;html=1;align=center;verticalAlign=middle;resizable=0;points=[];" vertex="1" connectable="0" parent="vLToclpWKujD72cjkbzM-17">
          <mxGeometry x="-0.3333" relative="1" as="geometry">
            <mxPoint as="offset" />
          </mxGeometry>
        </mxCell>
        <mxCell id="vLToclpWKujD72cjkbzM-9" value="Identificar-se?" style="rhombus;whiteSpace=wrap;html=1;" vertex="1" parent="1">
          <mxGeometry x="240" y="282.5" width="90" height="80" as="geometry" />
        </mxCell>
        <mxCell id="vLToclpWKujD72cjkbzM-29" style="edgeStyle=orthogonalEdgeStyle;rounded=0;orthogonalLoop=1;jettySize=auto;html=1;" edge="1" parent="1" source="vLToclpWKujD72cjkbzM-12" target="vLToclpWKujD72cjkbzM-27">
          <mxGeometry relative="1" as="geometry" />
        </mxCell>
        <mxCell id="vLToclpWKujD72cjkbzM-12" value="Login efetiado com sucesso" style="rounded=0;whiteSpace=wrap;html=1;" vertex="1" parent="1">
          <mxGeometry x="780" y="295" width="100" height="55" as="geometry" />
        </mxCell>
        <mxCell id="vLToclpWKujD72cjkbzM-28" style="edgeStyle=orthogonalEdgeStyle;rounded=0;orthogonalLoop=1;jettySize=auto;html=1;entryX=0.5;entryY=1;entryDx=0;entryDy=0;" edge="1" parent="1" source="vLToclpWKujD72cjkbzM-16" target="vLToclpWKujD72cjkbzM-27">
          <mxGeometry relative="1" as="geometry">
            <Array as="points">
              <mxPoint x="285" y="510" />
              <mxPoint x="1020" y="510" />
            </Array>
          </mxGeometry>
        </mxCell>
        <mxCell id="vLToclpWKujD72cjkbzM-16" value="Usuário Anônimo" style="rounded=0;whiteSpace=wrap;html=1;" vertex="1" parent="1">
          <mxGeometry x="235" y="410" width="100" height="55" as="geometry" />
        </mxCell>
        <mxCell id="vLToclpWKujD72cjkbzM-21" style="edgeStyle=orthogonalEdgeStyle;rounded=0;orthogonalLoop=1;jettySize=auto;html=1;entryX=0;entryY=0.5;entryDx=0;entryDy=0;" edge="1" parent="1" source="vLToclpWKujD72cjkbzM-19" target="vLToclpWKujD72cjkbzM-12">
          <mxGeometry relative="1" as="geometry" />
        </mxCell>
        <mxCell id="vLToclpWKujD72cjkbzM-22" value="Sim" style="edgeLabel;html=1;align=center;verticalAlign=middle;resizable=0;points=[];" vertex="1" connectable="0" parent="vLToclpWKujD72cjkbzM-21">
          <mxGeometry x="-0.3614" relative="1" as="geometry">
            <mxPoint as="offset" />
          </mxGeometry>
        </mxCell>
        <mxCell id="vLToclpWKujD72cjkbzM-24" style="edgeStyle=orthogonalEdgeStyle;rounded=0;orthogonalLoop=1;jettySize=auto;html=1;exitX=0.5;exitY=1;exitDx=0;exitDy=0;entryX=0.5;entryY=0;entryDx=0;entryDy=0;" edge="1" parent="1" source="vLToclpWKujD72cjkbzM-19" target="vLToclpWKujD72cjkbzM-23">
          <mxGeometry relative="1" as="geometry" />
        </mxCell>
        <mxCell id="vLToclpWKujD72cjkbzM-26" value="Não" style="edgeLabel;html=1;align=center;verticalAlign=middle;resizable=0;points=[];" vertex="1" connectable="0" parent="vLToclpWKujD72cjkbzM-24">
          <mxGeometry x="-0.2351" y="1" relative="1" as="geometry">
            <mxPoint as="offset" />
          </mxGeometry>
        </mxCell>
        <mxCell id="vLToclpWKujD72cjkbzM-19" value="CPF Cadastrado?" style="rhombus;whiteSpace=wrap;html=1;" vertex="1" parent="1">
          <mxGeometry x="580" y="282.5" width="110" height="80" as="geometry" />
        </mxCell>
        <mxCell id="vLToclpWKujD72cjkbzM-23" value="Solicita Nome e e-mail" style="rounded=0;whiteSpace=wrap;html=1;" vertex="1" parent="1">
          <mxGeometry x="585" y="410" width="100" height="55" as="geometry" />
        </mxCell>
        <mxCell id="vLToclpWKujD72cjkbzM-25" style="edgeStyle=orthogonalEdgeStyle;rounded=0;orthogonalLoop=1;jettySize=auto;html=1;exitX=1;exitY=0.5;exitDx=0;exitDy=0;" edge="1" parent="1" source="vLToclpWKujD72cjkbzM-23" target="vLToclpWKujD72cjkbzM-12">
          <mxGeometry relative="1" as="geometry" />
        </mxCell>
        <mxCell id="vLToclpWKujD72cjkbzM-33" style="edgeStyle=orthogonalEdgeStyle;rounded=0;orthogonalLoop=1;jettySize=auto;html=1;" edge="1" parent="1" source="vLToclpWKujD72cjkbzM-27" target="vLToclpWKujD72cjkbzM-30">
          <mxGeometry relative="1" as="geometry" />
        </mxCell>
        <mxCell id="vLToclpWKujD72cjkbzM-27" value="Seleciona o lanche" style="rounded=0;whiteSpace=wrap;html=1;" vertex="1" parent="1">
          <mxGeometry x="970" y="295" width="100" height="55" as="geometry" />
        </mxCell>
        <mxCell id="vLToclpWKujD72cjkbzM-34" style="edgeStyle=orthogonalEdgeStyle;rounded=0;orthogonalLoop=1;jettySize=auto;html=1;" edge="1" parent="1" source="vLToclpWKujD72cjkbzM-30" target="vLToclpWKujD72cjkbzM-31">
          <mxGeometry relative="1" as="geometry" />
        </mxCell>
        <mxCell id="vLToclpWKujD72cjkbzM-30" value="Seleciona o acompanhamento" style="rounded=0;whiteSpace=wrap;html=1;" vertex="1" parent="1">
          <mxGeometry x="1110" y="295" width="100" height="55" as="geometry" />
        </mxCell>
        <mxCell id="vLToclpWKujD72cjkbzM-35" style="edgeStyle=orthogonalEdgeStyle;rounded=0;orthogonalLoop=1;jettySize=auto;html=1;" edge="1" parent="1" source="vLToclpWKujD72cjkbzM-31" target="vLToclpWKujD72cjkbzM-32">
          <mxGeometry relative="1" as="geometry" />
        </mxCell>
        <mxCell id="vLToclpWKujD72cjkbzM-31" value="Seleciona o bebida" style="rounded=0;whiteSpace=wrap;html=1;" vertex="1" parent="1">
          <mxGeometry x="1260" y="295" width="100" height="55" as="geometry" />
        </mxCell>
        <mxCell id="vLToclpWKujD72cjkbzM-37" style="edgeStyle=orthogonalEdgeStyle;rounded=0;orthogonalLoop=1;jettySize=auto;html=1;" edge="1" parent="1" source="vLToclpWKujD72cjkbzM-32" target="vLToclpWKujD72cjkbzM-36">
          <mxGeometry relative="1" as="geometry" />
        </mxCell>
        <mxCell id="vLToclpWKujD72cjkbzM-32" value="Seleciona o sobremesa" style="rounded=0;whiteSpace=wrap;html=1;" vertex="1" parent="1">
          <mxGeometry x="1410" y="295" width="100" height="55" as="geometry" />
        </mxCell>
        <mxCell id="vLToclpWKujD72cjkbzM-39" style="edgeStyle=orthogonalEdgeStyle;rounded=0;orthogonalLoop=1;jettySize=auto;html=1;entryX=0;entryY=0.5;entryDx=0;entryDy=0;" edge="1" parent="1" source="vLToclpWKujD72cjkbzM-36" target="vLToclpWKujD72cjkbzM-38">
          <mxGeometry relative="1" as="geometry" />
        </mxCell>
        <mxCell id="vLToclpWKujD72cjkbzM-36" value="solicita pagamento" style="rounded=0;whiteSpace=wrap;html=1;" vertex="1" parent="1">
          <mxGeometry x="1570" y="295" width="100" height="55" as="geometry" />
        </mxCell>
        <mxCell id="vLToclpWKujD72cjkbzM-40" style="edgeStyle=orthogonalEdgeStyle;rounded=0;orthogonalLoop=1;jettySize=auto;html=1;exitX=0.5;exitY=1;exitDx=0;exitDy=0;entryX=0.5;entryY=1;entryDx=0;entryDy=0;" edge="1" parent="1" source="vLToclpWKujD72cjkbzM-38" target="vLToclpWKujD72cjkbzM-36">
          <mxGeometry relative="1" as="geometry" />
        </mxCell>
        <mxCell id="vLToclpWKujD72cjkbzM-41" value="Não" style="edgeLabel;html=1;align=center;verticalAlign=middle;resizable=0;points=[];" vertex="1" connectable="0" parent="vLToclpWKujD72cjkbzM-40">
          <mxGeometry x="-0.2023" y="-1" relative="1" as="geometry">
            <mxPoint as="offset" />
          </mxGeometry>
        </mxCell>
        <mxCell id="vLToclpWKujD72cjkbzM-43" style="edgeStyle=orthogonalEdgeStyle;rounded=0;orthogonalLoop=1;jettySize=auto;html=1;entryX=0;entryY=0.5;entryDx=0;entryDy=0;" edge="1" parent="1" source="vLToclpWKujD72cjkbzM-38" target="vLToclpWKujD72cjkbzM-42">
          <mxGeometry relative="1" as="geometry" />
        </mxCell>
        <mxCell id="vLToclpWKujD72cjkbzM-44" value="Sim" style="edgeLabel;html=1;align=center;verticalAlign=middle;resizable=0;points=[];" vertex="1" connectable="0" parent="vLToclpWKujD72cjkbzM-43">
          <mxGeometry x="-0.2389" relative="1" as="geometry">
            <mxPoint as="offset" />
          </mxGeometry>
        </mxCell>
        <mxCell id="vLToclpWKujD72cjkbzM-38" value="Pagamento validado com sucesso?" style="rhombus;whiteSpace=wrap;html=1;labelBackgroundColor=default;" vertex="1" parent="1">
          <mxGeometry x="1750" y="276.25" width="120" height="92.5" as="geometry" />
        </mxCell>
        <mxCell id="vLToclpWKujD72cjkbzM-42" value="Envia para fila de pedidos" style="rounded=0;whiteSpace=wrap;html=1;" vertex="1" parent="1">
          <mxGeometry x="1940" y="292.5" width="120" height="60" as="geometry" />
        </mxCell>
        <mxCell id="vLToclpWKujD72cjkbzM-46" value="" style="group" vertex="1" connectable="0" parent="1">
          <mxGeometry x="431.5" y="407.5" width="65" height="60" as="geometry" />
        </mxCell>
        <mxCell id="vLToclpWKujD72cjkbzM-6" value="DB" style="strokeWidth=2;html=1;shape=mxgraph.flowchart.database;whiteSpace=wrap;" vertex="1" parent="vLToclpWKujD72cjkbzM-46">
          <mxGeometry width="60" height="60" as="geometry" />
        </mxCell>
        <mxCell id="vLToclpWKujD72cjkbzM-45" value="" style="ellipse;whiteSpace=wrap;html=1;aspect=fixed;fillColor=#ffe6cc;strokeColor=#d79b00;" vertex="1" parent="vLToclpWKujD72cjkbzM-46">
          <mxGeometry x="45" width="20" height="20" as="geometry" />
        </mxCell>
        <mxCell id="vLToclpWKujD72cjkbzM-47" style="edgeStyle=orthogonalEdgeStyle;rounded=0;orthogonalLoop=1;jettySize=auto;html=1;" edge="1" parent="1" source="vLToclpWKujD72cjkbzM-23" target="vLToclpWKujD72cjkbzM-6">
          <mxGeometry relative="1" as="geometry" />
        </mxCell>
        <mxCell id="vLToclpWKujD72cjkbzM-52" value="Cadastra user" style="edgeLabel;html=1;align=center;verticalAlign=middle;resizable=0;points=[];" vertex="1" connectable="0" parent="vLToclpWKujD72cjkbzM-47">
          <mxGeometry x="0.2411" y="1" relative="1" as="geometry">
            <mxPoint x="13" y="-1" as="offset" />
          </mxGeometry>
        </mxCell>
        <mxCell id="vLToclpWKujD72cjkbzM-48" style="edgeStyle=orthogonalEdgeStyle;rounded=0;orthogonalLoop=1;jettySize=auto;html=1;exitX=0.5;exitY=1;exitDx=0;exitDy=0;entryX=0.5;entryY=0;entryDx=0;entryDy=0;entryPerimeter=0;" edge="1" parent="1" source="vLToclpWKujD72cjkbzM-8" target="vLToclpWKujD72cjkbzM-6">
          <mxGeometry relative="1" as="geometry" />
        </mxCell>
        <mxCell id="vLToclpWKujD72cjkbzM-49" value="Pega user" style="edgeLabel;html=1;align=center;verticalAlign=middle;resizable=0;points=[];" vertex="1" connectable="0" parent="vLToclpWKujD72cjkbzM-48">
          <mxGeometry x="-0.1002" y="-1" relative="1" as="geometry">
            <mxPoint as="offset" />
          </mxGeometry>
        </mxCell>
        <mxCell id="vLToclpWKujD72cjkbzM-53" value="" style="group" vertex="1" connectable="0" parent="1">
          <mxGeometry x="1970" y="170" width="65" height="60" as="geometry" />
        </mxCell>
        <mxCell id="vLToclpWKujD72cjkbzM-54" value="DB" style="strokeWidth=2;html=1;shape=mxgraph.flowchart.database;whiteSpace=wrap;" vertex="1" parent="vLToclpWKujD72cjkbzM-53">
          <mxGeometry width="60" height="60" as="geometry" />
        </mxCell>
        <mxCell id="vLToclpWKujD72cjkbzM-55" value="" style="ellipse;whiteSpace=wrap;html=1;aspect=fixed;fillColor=#ffe6cc;strokeColor=#d79b00;" vertex="1" parent="vLToclpWKujD72cjkbzM-53">
          <mxGeometry x="45" width="20" height="20" as="geometry" />
        </mxCell>
        <mxCell id="vLToclpWKujD72cjkbzM-56" style="edgeStyle=orthogonalEdgeStyle;rounded=0;orthogonalLoop=1;jettySize=auto;html=1;exitX=0.5;exitY=0;exitDx=0;exitDy=0;entryX=0.5;entryY=1;entryDx=0;entryDy=0;entryPerimeter=0;" edge="1" parent="1" source="vLToclpWKujD72cjkbzM-42" target="vLToclpWKujD72cjkbzM-54">
          <mxGeometry relative="1" as="geometry" />
        </mxCell>
      </root>
    </mxGraphModel>
  </diagram>
  <diagram id="doRWaeBdMp9M_KlAcoE3" name="Preparação e entrega do pedido">
    <mxGraphModel dx="939" dy="509" grid="1" gridSize="10" guides="1" tooltips="1" connect="1" arrows="1" fold="1" page="1" pageScale="1" pageWidth="827" pageHeight="1169" math="0" shadow="0">
      <root>
        <mxCell id="0" />
        <mxCell id="1" parent="0" />
        <mxCell id="TyUPN0Mh-pgbXyZ86w1F-11" style="edgeStyle=orthogonalEdgeStyle;rounded=0;orthogonalLoop=1;jettySize=auto;html=1;" edge="1" parent="1" source="TyUPN0Mh-pgbXyZ86w1F-1" target="TyUPN0Mh-pgbXyZ86w1F-8">
          <mxGeometry relative="1" as="geometry" />
        </mxCell>
        <mxCell id="X0uqsLGuVy27_AYWhuPQ-4" style="edgeStyle=orthogonalEdgeStyle;rounded=0;orthogonalLoop=1;jettySize=auto;html=1;exitX=0.5;exitY=1;exitDx=0;exitDy=0;" edge="1" parent="1" source="TyUPN0Mh-pgbXyZ86w1F-1" target="X0uqsLGuVy27_AYWhuPQ-1">
          <mxGeometry relative="1" as="geometry" />
        </mxCell>
        <mxCell id="TyUPN0Mh-pgbXyZ86w1F-1" value="Define o pedido como &#39;Recebido&#39;" style="rounded=0;whiteSpace=wrap;html=1;" vertex="1" parent="1">
          <mxGeometry x="294" y="285" width="120" height="60" as="geometry" />
        </mxCell>
        <mxCell id="OeKcLg-Zg1B7R_ZgvoB5-11" style="edgeStyle=orthogonalEdgeStyle;rounded=0;orthogonalLoop=1;jettySize=auto;html=1;" edge="1" parent="1" source="TyUPN0Mh-pgbXyZ86w1F-5" target="OeKcLg-Zg1B7R_ZgvoB5-1">
          <mxGeometry relative="1" as="geometry" />
        </mxCell>
        <mxCell id="TyUPN0Mh-pgbXyZ86w1F-5" value="Fila atualizada (Websocket)" style="sketch=0;outlineConnect=0;fontColor=#232F3E;gradientColor=none;strokeColor=#232F3E;fillColor=#ffffff;dashed=0;verticalLabelPosition=bottom;verticalAlign=top;align=center;html=1;fontSize=12;fontStyle=0;aspect=fixed;shape=mxgraph.aws4.resourceIcon;resIcon=mxgraph.aws4.event_event_based;labelBackgroundColor=default;" vertex="1" parent="1">
          <mxGeometry x="590" y="850" width="60" height="60" as="geometry" />
        </mxCell>
        <mxCell id="TyUPN0Mh-pgbXyZ86w1F-7" style="edgeStyle=orthogonalEdgeStyle;rounded=0;orthogonalLoop=1;jettySize=auto;html=1;" edge="1" parent="1" source="TyUPN0Mh-pgbXyZ86w1F-6" target="TyUPN0Mh-pgbXyZ86w1F-1">
          <mxGeometry relative="1" as="geometry" />
        </mxCell>
        <mxCell id="TyUPN0Mh-pgbXyZ86w1F-6" value="Notificação de novo pedido" style="sketch=0;outlineConnect=0;fontColor=#232F3E;gradientColor=none;strokeColor=#232F3E;fillColor=#ffffff;dashed=0;verticalLabelPosition=bottom;verticalAlign=top;align=center;html=1;fontSize=12;fontStyle=0;aspect=fixed;shape=mxgraph.aws4.resourceIcon;resIcon=mxgraph.aws4.event_event_based;" vertex="1" parent="1">
          <mxGeometry x="150" y="285" width="60" height="60" as="geometry" />
        </mxCell>
        <mxCell id="TyUPN0Mh-pgbXyZ86w1F-12" style="edgeStyle=orthogonalEdgeStyle;rounded=0;orthogonalLoop=1;jettySize=auto;html=1;" edge="1" parent="1" source="TyUPN0Mh-pgbXyZ86w1F-8" target="TyUPN0Mh-pgbXyZ86w1F-9">
          <mxGeometry relative="1" as="geometry" />
        </mxCell>
        <mxCell id="X0uqsLGuVy27_AYWhuPQ-5" style="edgeStyle=orthogonalEdgeStyle;rounded=0;orthogonalLoop=1;jettySize=auto;html=1;exitX=0.5;exitY=1;exitDx=0;exitDy=0;entryX=0.5;entryY=0;entryDx=0;entryDy=0;" edge="1" parent="1" source="TyUPN0Mh-pgbXyZ86w1F-8" target="X0uqsLGuVy27_AYWhuPQ-1">
          <mxGeometry relative="1" as="geometry" />
        </mxCell>
        <mxCell id="TyUPN0Mh-pgbXyZ86w1F-8" value="Define o pedido como &#39;Em Preparo&#39;" style="rounded=0;whiteSpace=wrap;html=1;" vertex="1" parent="1">
          <mxGeometry x="470" y="285" width="120" height="60" as="geometry" />
        </mxCell>
        <mxCell id="TyUPN0Mh-pgbXyZ86w1F-13" style="edgeStyle=orthogonalEdgeStyle;rounded=0;orthogonalLoop=1;jettySize=auto;html=1;" edge="1" parent="1" source="TyUPN0Mh-pgbXyZ86w1F-9" target="TyUPN0Mh-pgbXyZ86w1F-10">
          <mxGeometry relative="1" as="geometry" />
        </mxCell>
        <mxCell id="X0uqsLGuVy27_AYWhuPQ-6" style="edgeStyle=orthogonalEdgeStyle;rounded=0;orthogonalLoop=1;jettySize=auto;html=1;exitX=0.5;exitY=1;exitDx=0;exitDy=0;" edge="1" parent="1" source="TyUPN0Mh-pgbXyZ86w1F-9" target="X0uqsLGuVy27_AYWhuPQ-1">
          <mxGeometry relative="1" as="geometry" />
        </mxCell>
        <mxCell id="TyUPN0Mh-pgbXyZ86w1F-9" value="Define o pedido como &#39;Pronto&#39;" style="rounded=0;whiteSpace=wrap;html=1;" vertex="1" parent="1">
          <mxGeometry x="630" y="285" width="120" height="60" as="geometry" />
        </mxCell>
        <mxCell id="X0uqsLGuVy27_AYWhuPQ-7" style="edgeStyle=orthogonalEdgeStyle;rounded=0;orthogonalLoop=1;jettySize=auto;html=1;exitX=0.5;exitY=1;exitDx=0;exitDy=0;entryX=0.5;entryY=0;entryDx=0;entryDy=0;" edge="1" parent="1" source="TyUPN0Mh-pgbXyZ86w1F-10" target="X0uqsLGuVy27_AYWhuPQ-1">
          <mxGeometry relative="1" as="geometry" />
        </mxCell>
        <mxCell id="TyUPN0Mh-pgbXyZ86w1F-10" value="Define o pedido como &#39;Finalizado&#39;" style="rounded=0;whiteSpace=wrap;html=1;" vertex="1" parent="1">
          <mxGeometry x="810" y="285" width="120" height="60" as="geometry" />
        </mxCell>
        <mxCell id="OeKcLg-Zg1B7R_ZgvoB5-9" style="edgeStyle=orthogonalEdgeStyle;rounded=0;orthogonalLoop=1;jettySize=auto;html=1;exitX=0.5;exitY=1;exitDx=0;exitDy=0;" edge="1" parent="1" source="TyUPN0Mh-pgbXyZ86w1F-22" target="TyUPN0Mh-pgbXyZ86w1F-5">
          <mxGeometry relative="1" as="geometry" />
        </mxCell>
        <mxCell id="TyUPN0Mh-pgbXyZ86w1F-22" value="Atualiza tela de pedidos do cliente consumidor" style="rounded=0;whiteSpace=wrap;html=1;" vertex="1" parent="1">
          <mxGeometry x="450" y="670" width="120" height="60" as="geometry" />
        </mxCell>
        <mxCell id="jOVHCz0dn_H7fXVHpLWo-1" value="" style="group" vertex="1" connectable="0" parent="1">
          <mxGeometry x="780" y="430" width="65" height="60" as="geometry" />
        </mxCell>
        <mxCell id="jOVHCz0dn_H7fXVHpLWo-2" value="DB" style="strokeWidth=2;html=1;shape=mxgraph.flowchart.database;whiteSpace=wrap;" vertex="1" parent="jOVHCz0dn_H7fXVHpLWo-1">
          <mxGeometry width="60" height="60" as="geometry" />
        </mxCell>
        <mxCell id="jOVHCz0dn_H7fXVHpLWo-3" value="" style="ellipse;whiteSpace=wrap;html=1;aspect=fixed;fillColor=#ffe6cc;strokeColor=#d79b00;" vertex="1" parent="jOVHCz0dn_H7fXVHpLWo-1">
          <mxGeometry x="45" width="20" height="20" as="geometry" />
        </mxCell>
        <mxCell id="X0uqsLGuVy27_AYWhuPQ-8" style="edgeStyle=orthogonalEdgeStyle;rounded=0;orthogonalLoop=1;jettySize=auto;html=1;exitX=1;exitY=0.5;exitDx=0;exitDy=0;" edge="1" parent="1" source="X0uqsLGuVy27_AYWhuPQ-1" target="jOVHCz0dn_H7fXVHpLWo-2">
          <mxGeometry relative="1" as="geometry" />
        </mxCell>
        <mxCell id="OeKcLg-Zg1B7R_ZgvoB5-7" style="edgeStyle=orthogonalEdgeStyle;rounded=0;orthogonalLoop=1;jettySize=auto;html=1;exitX=0.5;exitY=1;exitDx=0;exitDy=0;" edge="1" parent="1" source="X0uqsLGuVy27_AYWhuPQ-1" target="TyUPN0Mh-pgbXyZ86w1F-22">
          <mxGeometry relative="1" as="geometry" />
        </mxCell>
        <mxCell id="OeKcLg-Zg1B7R_ZgvoB5-8" style="edgeStyle=orthogonalEdgeStyle;rounded=0;orthogonalLoop=1;jettySize=auto;html=1;exitX=0.5;exitY=1;exitDx=0;exitDy=0;" edge="1" parent="1" source="X0uqsLGuVy27_AYWhuPQ-1" target="OeKcLg-Zg1B7R_ZgvoB5-3">
          <mxGeometry relative="1" as="geometry" />
        </mxCell>
        <mxCell id="X0uqsLGuVy27_AYWhuPQ-1" value="Atualiza status do pedido" style="rounded=0;whiteSpace=wrap;html=1;" vertex="1" parent="1">
          <mxGeometry x="560" y="430" width="120" height="60" as="geometry" />
        </mxCell>
        <mxCell id="OeKcLg-Zg1B7R_ZgvoB5-1" value="Painel de pedidos (cliente)" style="sketch=0;aspect=fixed;pointerEvents=1;shadow=0;dashed=0;html=1;strokeColor=none;labelPosition=center;verticalLabelPosition=bottom;verticalAlign=top;align=center;fillColor=#00188D;shape=mxgraph.azure.computer" vertex="1" parent="1">
          <mxGeometry x="485" y="990" width="50" height="45" as="geometry" />
        </mxCell>
        <mxCell id="OeKcLg-Zg1B7R_ZgvoB5-2" value="Painel de pedidos (cozinha)" style="sketch=0;aspect=fixed;pointerEvents=1;shadow=0;dashed=0;html=1;strokeColor=none;labelPosition=center;verticalLabelPosition=bottom;verticalAlign=top;align=center;fillColor=#00188D;shape=mxgraph.azure.computer" vertex="1" parent="1">
          <mxGeometry x="715" y="990" width="50" height="45" as="geometry" />
        </mxCell>
        <mxCell id="OeKcLg-Zg1B7R_ZgvoB5-10" style="edgeStyle=orthogonalEdgeStyle;rounded=0;orthogonalLoop=1;jettySize=auto;html=1;exitX=0.5;exitY=1;exitDx=0;exitDy=0;" edge="1" parent="1" source="OeKcLg-Zg1B7R_ZgvoB5-3" target="TyUPN0Mh-pgbXyZ86w1F-5">
          <mxGeometry relative="1" as="geometry" />
        </mxCell>
        <mxCell id="OeKcLg-Zg1B7R_ZgvoB5-3" value="Atualiza tela de pedidos do cliente consumidor" style="rounded=0;whiteSpace=wrap;html=1;" vertex="1" parent="1">
          <mxGeometry x="680" y="670" width="120" height="60" as="geometry" />
        </mxCell>
        <mxCell id="OeKcLg-Zg1B7R_ZgvoB5-12" style="edgeStyle=orthogonalEdgeStyle;rounded=0;orthogonalLoop=1;jettySize=auto;html=1;" edge="1" parent="1" source="TyUPN0Mh-pgbXyZ86w1F-5" target="OeKcLg-Zg1B7R_ZgvoB5-2">
          <mxGeometry relative="1" as="geometry" />
        </mxCell>
      </root>
    </mxGraphModel>
  </diagram>
</mxfile>
